<svg width="359" height="77" viewBox="0 0 359 77" fill="none" xmlns="http://www.w3.org/2000/svg">
<path d="M102.49 56.04V8.31L110.47 6.88V36L126.63 20.93H135.77L118.38 37.23L136.79 56.05H126.42L110.46 39.75V56.05H102.48L102.49 56.04Z" fill="#FFFFFF"/>
<path d="M153.57 56.66C150.07 56.66 146.92 55.87 144.13 54.27C141.33 52.68 139.11 50.51 137.45 47.76C135.79 45.01 134.96 41.93 134.96 38.52C134.96 35.11 135.75 32.04 137.35 29.31C138.94 26.58 141.08 24.41 143.76 22.8C146.44 21.19 149.44 20.38 152.76 20.38C156.08 20.38 159.02 21.2 161.59 22.83C164.16 24.47 166.19 26.68 167.69 29.48C169.19 32.28 169.94 35.45 169.94 38.99V41.1H143.07C143.43 42.83 144.12 44.35 145.12 45.67C146.12 46.99 147.39 48.02 148.94 48.77C150.48 49.52 152.15 49.9 153.92 49.9C155.56 49.9 157.11 49.65 158.59 49.15C160.07 48.65 161.31 47.92 162.31 46.97L167.49 51.88C165.4 53.52 163.24 54.72 161.01 55.49C158.78 56.26 156.3 56.65 153.58 56.65L153.57 56.66ZM143 35.31H162.03C161.71 33.67 161.1 32.24 160.19 31.01C159.28 29.78 158.18 28.82 156.88 28.11C155.58 27.41 154.16 27.05 152.62 27.05C151.08 27.05 149.56 27.39 148.22 28.07C146.88 28.75 145.77 29.71 144.88 30.93C143.99 32.15 143.37 33.61 143 35.29V35.31Z" fill="#FFFFFF"/>
<path d="M192.37 56.59C189.1 56.59 186.1 55.78 183.37 54.17C180.64 52.56 178.49 50.39 176.93 47.66C175.36 44.93 174.58 41.86 174.58 38.45C174.58 35.04 175.37 32.04 176.97 29.31C178.56 26.58 180.72 24.42 183.45 22.83C186.18 21.24 189.22 20.44 192.59 20.44C194.45 20.44 196.24 20.7 197.94 21.22C199.64 21.74 201.22 22.53 202.68 23.57V8.3L210.66 6.87V56.04H202.75V52.9C199.84 55.35 196.38 56.58 192.38 56.58L192.37 56.59ZM193.53 49.7C195.39 49.7 197.11 49.37 198.68 48.71C200.25 48.05 201.58 47.09 202.67 45.81V31.01C201.58 29.83 200.24 28.91 198.65 28.25C197.06 27.59 195.35 27.26 193.54 27.26C191.45 27.26 189.56 27.75 187.88 28.73C186.2 29.71 184.87 31.04 183.89 32.72C182.91 34.4 182.42 36.31 182.42 38.45C182.42 40.59 182.91 42.5 183.89 44.18C184.87 45.86 186.2 47.2 187.88 48.2C189.56 49.2 191.45 49.7 193.54 49.7H193.53Z" fill="#FFFFFF"/>
<path d="M229.46 56.66C226.96 56.66 224.74 56.21 222.81 55.3C220.88 54.39 219.37 53.13 218.28 51.52C217.19 49.91 216.64 48.05 216.64 45.96C216.64 42.6 217.9 39.98 220.42 38.12C222.94 36.26 226.41 35.32 230.82 35.32C234.09 35.32 237.14 35.87 239.96 36.96V33.82C239.96 31.55 239.29 29.84 237.95 28.71C236.61 27.57 234.62 27.01 231.98 27.01C230.43 27.01 228.8 27.24 227.07 27.69C225.34 28.15 223.36 28.9 221.14 29.94L218.28 23.94C220.96 22.71 223.51 21.79 225.92 21.18C228.33 20.57 230.76 20.26 233.22 20.26C237.86 20.26 241.45 21.37 243.99 23.6C246.54 25.83 247.81 28.97 247.81 33.01V56.06H239.97V53.26C238.47 54.44 236.86 55.31 235.13 55.85C233.4 56.4 231.52 56.67 229.47 56.67L229.46 56.66ZM224.21 45.75C224.21 47.3 224.87 48.54 226.19 49.47C227.51 50.4 229.26 50.87 231.44 50.87C233.12 50.87 234.68 50.63 236.11 50.15C237.54 49.67 238.83 48.96 239.96 48V42.41C238.73 41.82 237.45 41.38 236.11 41.08C234.77 40.79 233.3 40.64 231.71 40.64C229.39 40.64 227.56 41.09 226.22 42C224.88 42.91 224.21 44.16 224.21 45.75Z" fill="#FFFFFF"/>
<path d="M259.33 15.95C258.06 15.95 256.95 15.5 256.02 14.59C255.09 13.68 254.62 12.57 254.62 11.25C254.62 9.93 255.09 8.82 256.02 7.91C256.95 7 258.05 6.55 259.33 6.55C260.61 6.55 261.76 7 262.67 7.91C263.58 8.82 264.03 9.93 264.03 11.25C264.03 12.57 263.58 13.68 262.67 14.59C261.76 15.5 260.65 15.95 259.33 15.95ZM255.38 56.04V20.92H263.36V56.04H255.38Z" fill="#FFFFFF"/>
<path d="M271.06 69.95V20.92H278.9V24.13C281.81 21.68 285.26 20.45 289.26 20.45C292.62 20.45 295.65 21.26 298.33 22.87C301.01 24.48 303.14 26.64 304.71 29.35C306.28 32.06 307.06 35.09 307.06 38.45C307.06 41.81 306.26 44.93 304.67 47.66C303.08 50.39 300.93 52.56 298.23 54.17C295.53 55.78 292.49 56.59 289.13 56.59C287.27 56.59 285.48 56.31 283.78 55.74C282.07 55.17 280.49 54.39 279.04 53.39V69.96H271.06V69.95ZM288.11 49.7C290.25 49.7 292.14 49.21 293.8 48.23C295.46 47.25 296.78 45.92 297.76 44.24C298.74 42.56 299.23 40.65 299.23 38.51C299.23 36.37 298.74 34.46 297.76 32.78C296.78 31.1 295.45 29.77 293.77 28.79C292.09 27.81 290.2 27.32 288.11 27.32C286.29 27.32 284.6 27.65 283.03 28.31C281.46 28.97 280.13 29.91 279.04 31.14V45.94C280.08 47.12 281.4 48.04 282.99 48.7C284.58 49.36 286.29 49.69 288.1 49.69L288.11 49.7Z" fill="#FFFFFF"/>
<path d="M324.66 56.66C322.16 56.66 319.94 56.21 318.01 55.3C316.08 54.39 314.57 53.13 313.48 51.52C312.39 49.91 311.84 48.05 311.84 45.96C311.84 42.6 313.1 39.98 315.62 38.12C318.14 36.26 321.61 35.32 326.02 35.32C329.29 35.32 332.34 35.87 335.16 36.96V33.82C335.16 31.55 334.49 29.84 333.15 28.71C331.81 27.57 329.82 27.01 327.18 27.01C325.63 27.01 324 27.24 322.27 27.69C320.54 28.15 318.56 28.9 316.34 29.94L313.48 23.94C316.16 22.71 318.71 21.79 321.12 21.18C323.53 20.57 325.96 20.26 328.42 20.26C333.06 20.26 336.65 21.37 339.19 23.6C341.74 25.83 343.01 28.97 343.01 33.01V56.06H335.17V53.26C333.67 54.44 332.06 55.31 330.33 55.85C328.6 56.4 326.72 56.67 324.67 56.67L324.66 56.66ZM319.41 45.75C319.41 47.3 320.07 48.54 321.39 49.47C322.71 50.4 324.46 50.87 326.64 50.87C328.32 50.87 329.88 50.63 331.31 50.15C332.74 49.67 334.03 48.96 335.16 48V42.41C333.93 41.82 332.65 41.38 331.31 41.08C329.97 40.79 328.5 40.64 326.91 40.64C324.59 40.64 322.76 41.09 321.42 42C320.08 42.91 319.41 44.16 319.41 45.75Z" fill="#FFFFFF"/>
<path d="M350.57 56.04V8.31L358.55 6.88V56.05H350.57V56.04Z" fill="#FFFFFF"/>
<path d="M78.15 11.84C78.15 8.43 75.39 5.67 71.98 5.67H14.68C11.27 5.67 8.51 8.43 8.51 11.84L5.67 51.11C5.67 56.75 10.24 61.32 15.88 61.32H34.18C35.31 61.32 36.38 61.87 37.04 62.79L42.11 69.86C42.71 70.7 43.96 70.7 44.56 69.86L49.63 62.79C50.29 61.87 51.35 61.32 52.49 61.32H70.79C76.43 61.32 81 56.75 81 51.11L78.16 11.84H78.15Z" fill="#0F172A"/>
<path d="M43.33 76.16C41.02 76.16 38.84 75.04 37.49 73.16L33.07 66.99H15.89C7.13 66.99 0 59.86 0 51.1V50.69L2.84 11.6C2.97 5.18 8.23 0 14.68 0H71.99C78.44 0 83.7 5.18 83.83 11.6L86.67 50.9V51.1C86.67 59.86 79.54 66.99 70.78 66.99H53.59L49.17 73.16C47.83 75.04 45.64 76.16 43.34 76.16H43.33ZM11.35 51.27C11.44 53.7 13.44 55.65 15.89 55.65H34.19C37.14 55.65 39.94 57.08 41.66 59.49L43.34 61.83L45.02 59.49C46.74 57.09 49.53 55.65 52.49 55.65H70.79C73.24 55.65 75.24 53.7 75.33 51.27L72.5 12.04V11.84C72.5 11.57 72.28 11.35 72.01 11.35H14.68C14.41 11.35 14.19 11.57 14.19 11.84V12.25L11.36 51.27H11.35Z" fill="#0F172A"/>
<path d="M78.15 11.84C78.15 8.43 75.39 5.67 71.98 5.67H14.68C11.27 5.67 8.51 8.43 8.51 11.84L5.67 51.11C5.67 56.75 10.24 61.32 15.88 61.32H34.18C35.31 61.32 36.38 61.87 37.04 62.79L42.11 69.86C42.71 70.7 43.96 70.7 44.56 69.86L49.63 62.79C50.29 61.87 51.35 61.32 52.49 61.32H70.79C76.43 61.32 81 56.75 81 51.11L78.16 11.84H78.15Z" fill="#10B981"/>
<path d="M49.53 44.91H36.44C30.29 44.91 25.28 39.9 25.28 33.75V22.61H29.03V33.75C29.03 37.84 32.36 41.16 36.44 41.16H49.53C53.62 41.16 56.94 37.83 56.94 33.75V22.61H60.69V33.75C60.69 39.9 55.68 44.91 49.53 44.91Z" fill="white"/>
<path d="M58.87 25.98C61.0294 25.98 62.78 24.2294 62.78 22.07C62.78 19.9106 61.0294 18.16 58.87 18.16C56.7106 18.16 54.96 19.9106 54.96 22.07C54.96 24.2294 56.7106 25.98 58.87 25.98Z" fill="white"/>
<path d="M27.04 25.98C29.1994 25.98 30.95 24.2294 30.95 22.07C30.95 19.9106 29.1994 18.16 27.04 18.16C24.8806 18.16 23.13 19.9106 23.13 22.07C23.13 24.2294 24.8806 25.98 27.04 25.98Z" fill="white"/>
</svg>
