<svg width="180" height="141" viewBox="0 0 180 141" fill="none" xmlns="http://www.w3.org/2000/svg">
<path d="M60.9285 64.4643C55.7493 65.095 47.6567 69.1418 45.5794 61.7719C42.9132 52.3158 44.9957 41.8268 42.8693 31.8942C41.4359 30.1992 38.8264 28.1515 38.8298 25.5897L41.1713 14.6929C41.5384 12.9859 42.5863 12.569 44.1036 12.3605L93.2676 5.58335L101.267 17.4793C103.114 20.2243 99.7104 23.6221 98.1164 26.0323C99.1423 32.9674 103.65 59.2582 101.056 59.5737L60.9297 64.4644L60.9285 64.4643ZM95.5329 14.5949L91.8241 9.12011L83.9139 10.2413L85.9601 15.7896L95.5329 14.5949ZM82.4578 16.1931L80.5613 10.7064L69.8057 12.0634C70.2337 14.224 70.7676 15.8684 71.4568 17.9092L82.4579 16.192L82.4578 16.1931ZM68.1616 18.4844L66.4457 12.6972L56.8505 13.8333C56.3591 16.2158 56.2213 18.4407 56.8454 20.5986C60.8873 19.6874 64.2509 19.0647 68.1617 18.4832L68.1616 18.4844ZM98.3 19.4379C98.5746 18.4325 98.0162 17.5125 97.1217 17.6248L86.5511 18.9492C86.9447 22.2344 89.5635 24.1852 92.3333 24.1192C95.0481 24.0543 97.4712 22.4787 98.3 19.4379ZM53.5004 21.1374C53.0985 18.3372 53.3086 16.5142 53.379 14.3166L44.2348 15.6543L42.3178 23.617L53.5002 21.1386L53.5004 21.1374ZM80.3697 24.3356C81.7741 23.3268 82.9035 21.3607 82.7469 19.4945L71.9302 21.086C72.5267 24.2832 77.3163 26.5295 80.3696 24.3367L80.3697 24.3356ZM68.6068 21.6892L57.643 23.6588C58.396 26.7225 61.2407 28.4936 64.1225 27.9108C66.7649 27.3773 68.87 24.8671 68.6068 21.6892ZM52.0569 62.9147C61.9728 61.1638 71.6548 59.766 81.8868 58.6474L79.716 37.3907C79.5819 36.0796 80.9988 35.3194 82.0349 35.3991C83.9948 34.6521 85.747 33.9269 87.7466 33.829C89.6885 33.7344 91.179 34.7133 91.4054 36.6181L93.8335 56.9845C95.5888 57.0703 97.1088 56.8919 98.6406 56.5608C98.0863 46.4423 96.6792 37.0125 94.8946 27.2756C91.1308 28.1213 87.6827 26.9178 84.9738 23.7466C82.741 27.6816 78.5089 29.1154 74.4462 28.0759L77.5587 52.086C77.793 53.8951 74.9946 55.2641 73.5344 55.3201C65.7372 55.6166 56.9789 57.9474 54.3157 56.0539C51.5384 54.0788 51.5719 39.5264 50.6616 32.7028C49.177 32.8743 48.0477 33.0495 46.4111 33.0147C48.1121 41.6132 45.2194 64.1196 52.0535 62.9132L52.0569 62.9147ZM53.3409 24.5466L42.9287 26.7143C44.1915 29.2255 46.5992 30.3345 49.3531 29.6757C51.2281 29.2277 53.1943 27.3508 53.3409 24.5466ZM72.3577 52.2106C73.1899 52.1775 74.0943 51.9063 74.3082 51.385C74.5597 50.7699 74.3621 50.1349 74.2567 49.4418L70.8073 26.8816C68.8371 29.6022 66.2433 31.022 63.5202 31.2196C60.4492 31.443 57.904 30.1711 56.0431 27.9129L53.705 30.9889L55.9059 51.591C55.9743 52.2288 56.4361 52.8935 56.723 53.155C57.4568 53.8228 66.4658 52.4431 72.3578 52.2094L72.3577 52.2106ZM85.2121 58.2354C87.9278 58.0406 88.8985 57.8517 90.6568 57.4352L88.4626 36.9257C86.5507 36.9746 84.9304 37.6389 82.9953 38.521L85.2121 58.2354Z" fill="#C7F0E2"/>
<path d="M29.5476 95.6811C29.1674 96.9569 27.7227 97.6091 26.544 98.2088L27.9636 101.833C31.479 109.131 34.0592 116.565 36.0568 124.43C37.0091 128.181 35.6789 131.806 31.803 133.369L20.5118 137.926C16.5969 139.507 12.8111 138.402 10.5257 135.012C5.11421 126.986 0.532303 118.807 -4.18502 110.279C-5.50785 111.03 -6.41404 111.196 -7.45416 110.856C-8.65461 110.463 -9.25085 109.352 -9.75967 108.282C-10.9137 105.858 -8.25208 104.429 -7.91683 102.763C-7.42093 100.295 -7.9168 98.0001 -5.43308 96.2174C-3.28329 94.6743 -0.661072 93.5214 1.88577 92.414L9.73682 89.0002C9.12008 88.1336 8.87096 87.2459 9.05031 86.6468C9.27611 85.894 10.1503 85.3831 10.8267 85.4765C11.7065 85.5991 12.3138 86.5529 12.5101 87.7752L17.2579 86.883C19.8512 86.3955 21.3879 87.6313 22.7207 89.5065C24.2385 89.7349 26.541 89.3975 27.9432 90.762C29.0009 91.7909 30.2377 93.3607 29.5475 95.6823L29.5476 95.6811ZM19.3336 90.7439C17.8597 89.7991 16.5929 90.1982 15.4661 90.6376L-1.39477 97.1957C-3.09225 97.8564 -4.62325 99.3851 -4.31832 101.48C1.64837 99.1303 7.53849 97.0805 13.0685 94.1095L19.3337 90.7427L19.3336 90.7439ZM21.0618 93.6109C12.5868 98.0594 4.33283 101.876 -4.5064 105C-5.64965 105.404 -6.56847 106.162 -5.95803 107.418L23.9143 95.741C24.7483 95.4145 25.4437 95.4753 25.7583 94.6962C25.9165 94.3038 26.0843 93.3143 25.4953 92.9761C24.1891 92.2249 22.582 92.8117 21.0618 93.6109ZM28.4641 126.614C23.983 126.452 20.2412 123.403 18.7794 119.496C16.1893 112.574 17.2904 104.427 23.7953 101.251C23.8996 100.694 23.4629 99.7969 22.9546 99.5951L-0.840975 108.854L3.95737 118.124L12.7482 132.74C13.9101 134.672 16.4905 135.95 18.7133 135.047L30.6993 130.17C32.64 129.38 33.6108 126.98 32.6482 125.094C31.4726 125.554 30.1719 126.675 28.4641 126.614ZM25.2616 104.045C19.6145 107.27 19.6686 115.631 22.9787 120.576C24.5628 122.942 27.581 123.992 29.9416 122.719C30.8151 122.247 31.3299 121.472 31.5917 120.74C31.8995 119.88 27.551 108.071 25.2603 104.046L25.2616 104.045Z" fill="#C7F0E2"/>
<path d="M69.0145 130.231L42.171 118.176C39.6318 117.036 38.0952 114.329 39.548 111.579L50.3524 91.1418C56.6429 79.2426 63.0638 77.2752 74.7964 73.5835C77.4264 72.7561 80.3222 73.4463 82.7158 73.7133C85.8358 71.788 88.8497 70.0148 92.7138 70.9481C94.8873 71.473 96.7632 72.8959 97.6299 74.6646C98.6971 76.8429 98.4969 79.2031 97.3044 81.4227C95.717 84.3792 92.7876 85.9335 89.2007 86.5225C92.9467 98.5045 85.7706 109.55 78.7529 119.527L71.8468 129.345C71.2515 130.191 70.3744 130.839 69.0136 130.229L69.0145 130.231ZM93.1279 81.5242C95.1619 80.1692 95.9939 76.601 93.8806 75.1549C91.2182 73.3318 87.6015 74.3522 85.2264 76.2781C86.4928 78.6129 87.3931 80.5786 88.0838 83.2249C89.8086 83.2835 91.3872 82.684 93.1279 81.5242ZM80.8727 110.339C88.4714 99.3056 89.1063 89.4959 82.5326 78.4583C81.0028 79.8762 80.3367 80.9145 79.4712 82.2835C82.0189 84.6601 81.9722 88.1531 80.2984 90.6275C78.5988 93.1421 75.1575 93.5773 72.4078 92.1973C69.8631 90.9207 68.6516 87.9017 69.634 84.8751C70.4969 82.2152 73.0926 80.4792 76.3748 80.8088C77.5077 79.3517 78.8384 78.1845 79.5271 76.5517C75.3748 76.5722 72.1064 78.0374 68.5604 79.1108C61.9879 81.1 56.9357 85.781 53.7023 91.8393L43.1427 111.625C42.6292 112.587 42.3939 113.439 42.8392 114.478C43.1253 115.145 44.0077 115.409 44.9918 115.848L69.5194 126.819L80.8733 110.334L80.8727 110.339ZM74.5069 84.4609C72.7257 84.5263 71.9909 86.9075 72.9399 88.4117C73.7978 89.7424 75.7508 90.5838 77.5209 88.9413C78.1843 88.4375 79.0237 86.0389 77.4504 85.4176C77.145 86.7636 76.6425 87.5796 76.1152 87.7973C75.3704 88.1048 74.3067 87.7284 74.0013 87.1187C73.6555 86.4295 74.0664 85.5104 74.5059 84.4595L74.5069 84.4609Z" fill="#C7F0E2"/>
<path d="M144.87 59.4487C141.751 58.9219 139.995 57.4128 137.915 55.833C132.688 51.8633 129.347 45.7572 129.423 39.612C129.509 32.6072 132.869 26.4718 138.658 22.446C146.467 17.0158 157.098 17.8612 164.304 24.5067C171.579 31.2157 172.55 42.9826 166.755 51.0302C161.791 57.9234 153.303 60.8733 144.869 59.4474L144.87 59.4487ZM162.643 50.8664C169.645 43.7648 168.446 32.2765 161.073 26.0416C155.679 21.4794 147.971 21.0298 141.886 24.3539C136.251 27.4319 132.182 33.5467 132.766 40.5356C133.305 46.9717 137.391 52.8096 143.597 55.5133C149.769 58.2015 157.626 55.9559 162.643 50.8676L162.643 50.8664Z" fill="#C7F0E2"/>
<path d="M30.5286 78.5591C26.8396 76.569 23.5526 75.0677 20.8182 72.154C17.8441 68.984 17.4647 63.777 20.6734 60.6554C23.0788 58.315 26.737 59.0219 29.4328 60.7125C30.491 58.0569 32.379 56.4283 35.0534 56.3723C37.3736 56.3245 39.5563 57.6814 40.5682 60.2048C42.9345 66.1052 38.8731 74.0583 34.9694 79.2263C33.7878 80.1959 31.7076 79.1939 30.5299 78.558L30.5286 78.5591ZM33.4351 76.7862C36.085 72.482 39.3708 65.9721 38.1011 61.5798C37.5589 59.7029 35.3576 58.5518 33.6371 59.5693C30.8809 61.1996 33.0226 65.002 31.2334 65.5835C29.141 66.2636 28.6513 61.724 24.7157 61.7847C22.5618 61.8182 21.2025 63.8024 21.245 65.9286C21.3546 71.4216 28.0088 74.366 33.4327 76.7859L33.4351 76.7862Z" fill="#C7F0E2"/>
<path d="M64.5375 139.799C63.4972 142.145 58.235 140.295 55.5986 142.043C52.9018 143.832 54.0522 148.919 51.2501 149.427C50.3587 149.588 49.0543 149.374 48.6995 148.448L41.186 128.849C40.7641 127.748 42.8999 127.031 43.8949 127.546L64.286 138.093C64.8741 138.397 64.6987 139.434 64.5363 139.799L64.5375 139.799ZM52.0665 140.722L47.8212 136.721L50.6292 144.08L52.0665 140.722ZM56.5395 137.877C54.4815 136.648 53.2805 135.873 51.3762 135.376C52.1157 136.555 52.9485 137.521 54.053 138.227C54.7554 138.676 56.1179 138.265 56.5395 137.877Z" fill="#C7F0E2"/>
<path d="M117.332 45.5766C117.332 46.7502 116.734 47.4974 115.726 47.4554C113.037 47.3438 114.003 42.2249 111.101 36.5603C108.932 32.3252 104.888 35.4078 104.388 33.2919C104.272 32.8043 104.196 31.6546 104.858 31.3274L110.155 28.7097L111.48 16.5843C111.584 15.6237 111.955 14.9571 112.664 14.7769C113.2 14.6403 114.435 14.7893 114.584 15.5886L116.826 27.6456C120.021 29.5883 123.575 30.7615 122.906 32.4919C122.729 32.9492 122.362 33.5089 121.608 33.7187L117.333 34.9044L117.332 45.5754L117.332 45.5766ZM116.516 30.9777C115.326 30.4229 114.183 30.7591 113.556 28.5315C113.481 30.1423 112.127 31.1219 111.54 31.948C112.285 33.0839 113.505 34.1696 113.967 35.4266C114.092 34.5256 114.052 33.4468 114.42 32.763C114.753 32.1447 117.891 31.6194 116.517 30.9779L116.516 30.9777Z" fill="#C7F0E2"/>
<path d="M112.255 101.573C111.491 102.465 110.551 102.643 109.812 101.956C107.84 100.123 111.904 96.8613 113.383 90.6718C114.488 86.0432 109.412 85.7561 110.407 83.8233C110.637 83.3777 111.325 82.4552 112.041 82.6364L117.768 84.0922L126.658 75.7415C127.362 75.0798 128.077 74.8144 128.732 75.1383C129.229 75.383 130.071 76.3001 129.664 77.0035L123.527 87.6216C124.692 91.1751 126.628 94.3775 124.996 95.2565C124.563 95.4891 123.921 95.6752 123.212 95.3443L119.193 93.4655L112.255 101.572L112.255 101.573ZM121.127 89.9506C120.584 88.7553 119.496 88.2677 120.467 86.1674C119.362 87.3423 117.697 87.2077 116.714 87.4525C116.541 88.7996 116.763 90.4174 116.296 91.6732C116.977 91.0698 117.648 90.2242 118.372 89.943C119.027 89.6891 121.753 91.3316 121.125 89.9504L121.127 89.9506Z" fill="#C7F0E2"/>
<path d="M155.468 77.7179L148.913 82.141C147.598 83.0281 147.199 84.432 145.73 84.0798C144.168 83.7057 143.373 82.9846 142.867 81.3898C140.924 75.2713 140.399 68.4858 145.397 66.3968C147.551 65.4966 148.655 67.5452 150.222 67.9473C151.81 68.3553 153.941 66.7004 155.8 68.4115C158.502 70.899 158.602 74.9595 155.469 77.718L155.468 77.7179ZM148.311 73.6136C147.068 72.5922 147.79 70.36 147.013 70.0576C145.416 69.435 144.324 74.7026 146.076 79.4514L152.799 75.2721C153.382 74.909 153.94 73.872 153.722 73.4473C153.444 72.9062 152.635 72.4272 152.061 72.3414C151.47 72.2537 150.066 75.0556 148.311 73.6148L148.311 73.6136Z" fill="#C7F0E2"/>
<path d="M117.012 57.7531C120.941 56.678 124.443 59.2103 125.245 62.9108C125.987 66.3399 123.977 69.8645 120.19 70.7661C116.88 71.5534 113.244 69.581 112.112 65.7623C111.213 62.7318 113.089 58.8263 117.012 57.7531ZM118.95 67.6139C121.627 67.1128 122.884 64.1409 121.493 62.078C120.543 60.6692 118.35 60.2759 117.011 61.0935C115.724 61.8785 115.03 63.6242 115.483 65.2694C115.813 66.4679 117.068 67.967 118.949 67.6151L118.95 67.6139Z" fill="#C7F0E2"/>
<path d="M30.7258 41.5079C32.3848 41.0538 33.8641 42.1233 34.2025 43.6861C34.5159 45.1343 33.6673 46.6229 32.0677 47.0036C30.6698 47.3361 29.1342 46.5031 28.656 44.8904C28.2765 43.6105 29.0689 41.9611 30.7258 41.5079ZM31.5439 45.6724C32.6746 45.4608 33.2055 44.2056 32.6179 43.3344C32.2168 42.7394 31.2909 42.5733 30.7251 42.9186C30.1816 43.2501 29.8886 43.9874 30.0798 44.6822C30.2192 45.1884 30.7493 45.8215 31.5439 45.6729L31.5439 45.6724Z" fill="#C7F0E2"/>
<path d="M17.7927 77.4061C19.4517 76.9521 20.931 78.0215 21.2694 79.5844C21.5828 81.0326 20.7342 82.5211 19.1346 82.9019C17.7367 83.2344 16.2011 82.4014 15.7229 80.7887C15.3434 79.5088 16.1358 77.8594 17.7927 77.4061ZM18.6108 81.5706C19.7415 81.359 20.2724 80.1039 19.6848 79.2326C19.2837 78.6377 18.3578 78.4716 17.792 78.8169C17.2485 79.1484 16.9555 79.8857 17.1467 80.5805C17.2861 81.0866 17.8162 81.7197 18.6108 81.5711L18.6108 81.5706Z" fill="#C7F0E2"/>
<path d="M37.9379 82.9915C41.6938 81.9647 45.0427 84.3848 45.8089 87.9228C46.5184 91.2015 44.5975 94.5708 40.9764 95.4331C37.8112 96.1859 34.3354 94.3001 33.253 90.6492C32.3936 87.7519 34.188 84.0178 37.9379 82.9915ZM39.7895 92.4181C42.3485 91.9388 43.5509 89.0971 42.2216 87.1244C41.3141 85.7776 39.2164 85.4017 37.9356 86.1838C36.706 86.9344 36.0409 88.6032 36.4751 90.176C36.7919 91.3217 37.9909 92.755 39.7895 92.4181Z" fill="#C7F0E2"/>
<path d="M59.9439 50.8693C59.0463 51.4313 58.1988 50.9768 57.7121 50.5636C57.3381 50.2462 56.8564 49.1579 57.513 48.7381L69.4995 41.1053C70.2713 40.6145 71.2709 41.1308 71.5897 41.6165C72.1527 42.4725 71.8395 43.4153 70.8943 44.008L59.9429 50.868L59.9439 50.8693Z" fill="#C7F0E2"/>
<path d="M61.4616 41.808C60.5438 42.5231 59.5983 42.3123 59.1174 41.8795C58.5233 41.3449 58.2739 40.2386 59.0176 39.6647L62.757 36.7796C63.45 36.2444 64.547 36.5002 65.0906 37.0162C65.4849 37.3895 65.766 38.4562 65.0295 39.0297L61.4627 41.8081L61.4616 41.808Z" fill="#C7F0E2"/>
<path d="M72.1271 111.89C65.9938 108.423 60.0543 105.515 53.5531 103.398C52.4252 103.03 52.1369 102.262 52.3324 101.37C52.5113 100.554 53.3734 99.8565 54.5154 100.249C61.2258 102.552 67.5439 105.447 73.619 109.021C74.4778 109.526 74.6302 110.227 74.4996 110.96C74.3626 111.731 73.3434 112.578 72.1259 111.89L72.1271 111.89Z" fill="#C7F0E2"/>
<path d="M65.9746 116.179C66.613 116.513 66.0597 117.91 65.5095 118.273C64.9631 118.634 64.2654 118.87 63.252 118.349L51.3104 112.208C50.375 111.727 50.3838 110.628 50.6256 110.092C50.9794 109.304 51.9763 108.851 52.9639 109.368L65.9759 116.178L65.9746 116.179Z" fill="#C7F0E2"/>
<path d="M72.0282 102.727C70.563 104.896 67.8262 100.756 61.0442 98.6617C60.1095 98.3733 60.0279 97.3389 60.2488 96.6978C61.1681 94.0237 67.1279 97.4614 71.3626 100.191C72.3516 100.828 72.7688 101.63 72.0282 102.727Z" fill="#C7F0E2"/>
<path d="M104.607 123.384C99.3538 123.149 95.4352 124.422 94.6445 123.319C93.4335 121.633 96.1876 117.481 99.1302 114.754C100.751 113.252 102.745 110.949 101.635 108.575C101.113 107.456 97.8994 107.991 97.704 109.082C97.5471 109.959 97.7032 110.78 97.4438 111.268C97.2174 111.695 96.2121 112.237 95.5599 111.909C94.4445 111.348 94.2272 109.679 94.2903 108.676C94.3771 107.298 95.147 106.504 96.4322 105.615C98.7497 104.011 102.703 103.709 104.412 106.487C106.067 109.176 105.172 113.466 103.133 115.584C101.525 117.256 99.9213 118.162 98.6873 120.223C101.144 120.23 103.231 119.871 105.507 120.434C106.192 120.603 106.237 121.742 106.006 122.27C105.823 122.687 105.498 123.423 104.607 123.383L104.607 123.384Z" fill="#C7F0E2"/>
<path d="M117.799 114.23C118.894 114.791 118.408 115.865 118.186 116.251C117.934 116.687 116.854 116.742 116.327 117.213C115.292 118.137 116.144 119.986 116.192 121.059C116.264 122.681 114.771 122.879 113.778 122.521C111.001 121.522 114.581 116.384 110.507 116.859C108.385 117.106 106.284 115.551 106.617 113.375L107.913 104.895C108.05 103.999 110.789 104.175 110.698 105.042L109.838 113.22C109.771 113.867 111.067 113.947 111.561 113.892C113.816 113.639 112.062 110.582 114.487 110.891C115.376 111.003 116.085 111.602 115.996 112.891C115.932 113.825 117.327 113.99 117.799 114.232L117.799 114.23Z" fill="#C7F0E2"/>
<path d="M144.422 52.1379C144.104 51.4015 144.514 50.1193 144.102 49.7883C143.242 49.0972 141.184 48.5562 140.94 47.1377C140.829 46.4965 141.222 45.8787 141.648 45.5678C142.387 45.0292 143.188 45.2686 143.94 45.8835C146.673 48.1201 150 48.0151 151.316 45.9869C154.932 40.4164 144.24 40.6174 144.617 34.8283C144.748 32.8367 145.933 30.8826 147.981 30.0329C151.157 28.7154 149.576 26.5424 150.776 25.6716C151.261 25.3204 152.144 25.3155 152.621 25.5318C154.123 26.2147 152.674 28.9247 153.352 29.2213C154.407 29.6815 156.361 29.3911 157.222 30.3366C157.779 30.9484 157.672 32.6895 156.727 32.8762C154.417 33.3335 149.201 30.7056 148.373 34.2802C147.494 38.0702 156.418 37.7916 155.144 45.1266C154.525 48.6891 151.615 50.6419 147.896 50.6758C147.548 51.5097 147.21 52.3567 146.776 52.6656C146.115 53.1338 144.859 53.1534 144.422 52.1391L144.422 52.1379Z" fill="#C7F0E2"/>
<path d="M176.008 119.004C162.295 123.118 148.577 125.449 134.31 125.369C132.296 115.471 131.278 105.923 130.446 96.0281C130.386 95.3064 129.776 93.6896 131.067 93.3694L164.362 85.1057C168.023 84.1975 171.433 86.9503 172.025 90.3344L176.483 115.806C176.651 116.763 176.294 117.886 176.007 119.003L176.008 119.004ZM155.96 107.554C159.818 102.963 163.309 98.6275 167.096 102.056L171.446 105.995L169.121 91.7745C168.93 90.6065 168.366 89.4292 167.721 88.9488C166.746 88.2227 165.516 88.0767 164.258 88.287C153.821 90.2837 143.857 93.2233 133.661 96.0531L135.758 114.493L143.96 101.017C145.661 98.9233 148.864 98.2629 150.475 100.371L155.96 107.553L155.96 107.554ZM173.375 116.338C172.925 114.428 173.212 112.558 172.247 111.598L165.172 104.548C164.435 103.814 162.648 104.768 162.155 105.34L157.988 110.185L161.836 115.413C162.702 116.59 163.381 117.5 163.617 119.029L173.374 116.339L173.375 116.338ZM160.807 119.518L149.248 103.689C148.299 102.734 146.951 102.597 146.099 103.634L137.355 118.314C136.61 119.566 136.173 120.783 137.216 122.196C145.194 122.015 152.905 121.175 160.807 119.518Z" fill="#C7F0E2"/>
<path d="M155.619 101.734C153.508 100.384 151.873 92.9278 156.057 91.3395C157.922 90.6325 159.896 91.1144 161.278 92.6116C163.063 94.544 163.456 97.3075 161.988 99.7444C161.055 101.295 158.171 103.366 155.618 101.734L155.619 101.734ZM157.912 98.9242C159.196 99.3053 159.89 97.1084 159.634 96.1148C159.416 95.2747 158.536 93.6561 157.256 94.3177C155.932 95.0021 156.484 98.5013 157.91 98.9241L157.912 98.9242Z" fill="#C7F0E2"/>
</svg>
