<svg width="180" height="155" viewBox="0 0 180 155" fill="none" xmlns="http://www.w3.org/2000/svg">
<path d="M49.9898 115.759C44.3769 109.405 37.8986 104.755 30.9302 99.911L48.5151 45.293C48.9399 43.9721 50.1683 43.4862 51.2805 43.3448L60.9467 42.1123C64.1528 34.7993 68.3545 28.2739 73.6956 22.4766C75.9969 20.297 78.974 19.3406 82.0736 20.6429C86.2692 19.2308 89.7997 21.5895 91.2466 25.7029C92.9293 31.026 92.7128 36.6998 92.7314 42.4549C93.8192 43.3586 94.982 43.6955 96.4998 44.4277L92.5608 104.629C92.3522 105.689 90.477 106.435 89.503 106.647C77.0201 109.357 65.0647 112.909 53.1397 117.391C51.6284 117.96 50.9025 116.796 49.9882 115.762L49.9898 115.759ZM88.8173 40.796C89.0387 33.677 89.0808 24.5355 84.2533 24.0534C84.222 29.7023 82.0332 34.498 80.0713 39.6153C83.5948 39.2901 85.8606 39.5581 88.8186 40.7962L88.8173 40.796ZM71.693 40.6449C72.5158 34.8963 74.6562 30.5859 76.6604 25.2415C71.6351 29.8179 68.4407 35.3321 65.3862 41.3302C67.7958 41.566 69.4953 41.2727 71.6931 40.6436L71.693 40.6449ZM75.5126 40.1515C78.0139 35.3514 79.5318 31.001 80.6085 26.3712C77.5749 30.7759 76.1698 35.5446 75.5126 40.1515ZM74.3824 48.6317L88.953 45.1262C85.4798 42.3376 79.7652 43.1673 75.0106 44.3936C74.1714 45.3249 74.3687 47.472 74.381 48.6315L74.3824 48.6317ZM70.0917 49.2595C71.1425 48.3116 70.8963 45.9494 70.7716 44.7327L57.6335 46.3927L65.1693 50.8411C66.7004 50.253 68.8116 50.413 70.0917 49.2595ZM55.2967 112.625C67.0834 108.224 77.7496 105.518 89.0986 102.861L91.6632 62.253C88.962 63.0513 86.4899 62.1464 85.4959 60.1722C84.2609 57.7168 85.3387 55.4977 87.3423 53.8161C88.4406 52.8951 88.2297 50.5721 88.1959 49.308L74.9483 52.2221C74.3118 52.3618 74.0106 53.8254 74.3942 53.9445C76.8624 54.7099 78.4247 56.33 78.4963 58.4798C78.5787 60.9578 77.057 62.9218 75.099 63.3248C72.5405 63.8495 70.3747 62.8579 69.4452 60.9179C68.4167 58.771 69.6424 56.8227 70.4577 54.8137C70.9685 53.5539 69.0847 53.4594 68.4597 53.7448C67.4678 54.1977 66.9694 54.8128 66.7808 56.1796L55.2965 112.626L55.2967 112.625ZM45.298 91.5994L57.0479 50.6653C55.1737 49.4218 53.5001 48.6932 51.4083 48.2028L36.3685 95.2825C39.537 94.4979 42.3872 93.4174 45.2966 91.5992L45.298 91.5994ZM56.2454 89.4302L63.4128 54.8264C63.0541 53.808 61.5377 52.7597 60.3376 52.6423L47.4799 96.8673L52.0799 109.14L56.2468 89.4303L56.2454 89.4302ZM46.771 106.985L43.7186 96.6449L36.6738 99.4688L46.7723 106.985L46.771 106.985Z" fill="#C7F0E2"/>
<path d="M154.369 80.151L131.573 87.0274C122.972 89.6218 114.071 88.8549 110.351 80.3003C107.474 73.6845 105.813 66.3226 105.961 59.0757C106.083 53.0538 108.978 48.322 113.602 45.0717C114.649 44.3359 115.365 43.3546 116.476 42.5971L127.27 35.2278L137.816 27.9871C138.241 27.6951 139.413 27.1935 139.788 27.741L144.379 34.4506C150.647 34.185 153.144 41.1644 154.775 47.2423C158.899 48.162 158.593 56.933 159.966 63.1369C160.657 66.2557 161.827 69.1483 161.266 72.4874C160.661 76.0903 158.141 79.0133 154.367 80.1522L154.369 80.151ZM136.997 32.9676C137.65 32.5135 138.541 33.1835 138.708 33.6675C138.841 34.0525 138.915 34.5511 138.541 35.2751C139.475 35.2657 140.241 35.1795 141.187 34.6672L138.63 30.75L127.383 38.618C128.328 38.8931 128.98 38.2387 129.695 38.0448L136.996 32.9674L136.997 32.9676ZM156.9 63.6232L139.24 70.3827C136.265 71.522 133.529 70.0463 132.119 67.3567C129.385 62.1408 129.631 53.2504 135.976 51.58L151.927 47.3801C150.943 43.9067 149.761 40.5222 147.342 38.0752C145.988 36.7066 143.569 37.1647 141.833 37.2442L131.43 40.437C125.977 42.1111 120.81 44.2467 115.879 47.1028C110.684 50.1116 108.179 55.624 108.698 61.6402C109.184 67.2809 110.499 72.8027 112.407 78.0506C116.249 88.6215 126.388 85.6728 135.232 83.1263L149.252 79.0885C151.602 78.4118 153.925 77.5195 155.923 76.1206C159.608 73.5401 158.925 68.2747 156.9 63.6245L156.9 63.6232ZM139.125 67.3779L156.6 60.5971L155.004 51.7705C154.765 50.4515 153.509 49.7857 152.224 50.0979L136.457 54.3749C132.638 55.4108 132.673 61.9265 134.83 66.2639C135.491 67.5944 137.569 67.981 139.126 67.3767L139.125 67.3779Z" fill="#C7F0E2"/>
<path d="M31.7431 30.6939C34.6567 31.7759 36.796 34.1722 38.0518 36.901C38.0303 38.7274 37.6015 40.5138 36.2232 41.718C36.0394 41.893 35.7548 42.1184 35.5627 42.2952C30.3576 42.7098 24.9016 43.2267 19.8643 41.2053C17.0485 40.0753 14.9964 36.6078 16.7501 34.0352C17.6424 32.7254 19.355 31.4415 20.505 30.8994C22.0486 30.171 24.0902 29.7389 25.8083 29.6643C27.766 29.5801 29.9353 30.0216 31.7419 30.6924L31.7431 30.6939ZM33.8111 37.0792C33.8314 36.7407 33.7317 36.0241 33.2394 35.6616C27.1705 31.1945 20.2972 34.2482 20.5553 36.0965C20.6244 36.5918 21.1315 37.8008 21.8382 38.0325C26.097 39.4274 33.6688 39.5193 33.8113 37.0778L33.8111 37.0792Z" fill="#C7F0E2"/>
<path d="M1.16151 59.6103C0.090985 50.6266 2.13921 41.5452 8.88904 36.0908C11.805 33.7338 13.9828 31.019 14.2577 27.0126C14.771 19.5381 14.7605 12.2319 14.3408 4.72879C14.3017 4.03098 14.5552 3.3498 14.8437 3.01306C15.3053 2.47427 16.0118 2.51791 16.9489 2.66005C28.0599 4.3498 39.0084 4.70569 50.168 4.70966C51.5824 4.70987 51.9555 6.7301 51.9775 7.81305C52.1632 17.2803 51.8994 26.4428 49.2306 35.4667C48.009 39.597 45.4254 42.9138 41.2653 44.0355C36.9957 45.1875 33.7604 48.0919 33.1977 52.6559L32.0225 62.1832C21.7327 64.6469 11.1831 63.7904 1.163 59.6091L1.16151 59.6103ZM48.4018 8.48273C47.1177 8.24724 45.9181 8.08764 44.4229 8.60876C44.8392 10.9607 46.1939 12.8499 48.2278 13.5861L48.4004 8.48258L48.4018 8.48273ZM39.8557 8.39052L32.8542 8.02779L27.0291 7.3575C26.0174 7.26181 25.8245 8.85841 25.5657 9.46272C24.3794 12.2315 21.793 14.4143 18.5374 15.2617L18.1665 23.9152L17.655 28.5611C17.1609 33.0453 14.9296 36.0786 11.432 38.7243C8.19108 41.1757 4.71732 45.4797 5.36279 49.6074C7.61782 52.0299 10.4745 54.6346 9.89594 58.6273C14.5113 59.7106 18.5506 60.1607 23.3014 59.8019C24.5028 56.5524 26.3701 53.5969 29.6702 52.1235C30.0726 47.7684 32.6371 44.8555 35.5611 42.2977L36.2216 41.7204C37.782 41.5674 39.2586 41.156 40.6595 40.5116L41.6834 40.0404C42.5381 39.6463 43.0859 39.1168 43.6959 38.4524C47.0099 34.8452 47.5575 24.859 48.0266 18.0079C44.2314 16.5091 41.2119 12.5487 40.5448 9.44063L40.3464 8.51575C40.3075 8.33305 40.1509 8.09265 39.8529 8.39157L39.8557 8.39052ZM22.7228 7.05843L18.1814 6.62633L18.2257 11.3363C20.7012 10.7985 22.1163 9.09 22.7229 7.05709L22.7228 7.05843Z" fill="#C7F0E2"/>
<path d="M85.3651 151.285L70.2975 124.193C67.7121 119.544 60.7281 122.108 59.362 121.068C58.7325 120.589 58.57 119.583 58.9855 118.752C59.9052 116.911 71.8371 115.329 74.892 125.154C90.6717 124.622 105.935 123.13 121.418 120.741C122.642 120.552 124.611 120.846 124.294 122.59C122.579 131.984 120.097 140.957 116.955 150.331C107.442 149.931 98.3864 150.781 89.1663 153.055C87.6614 153.427 86.089 152.581 85.3666 151.283L85.3651 151.285ZM114.379 146.369L120.119 124.877L111.463 126.121L114.379 146.369ZM110.436 146.209L107.816 126.451L100.375 127.395L103.187 146.817C106.03 146.751 108.188 147.01 110.436 146.209ZM99.3904 147.19L96.6193 127.6L90.2298 128.156C92.0342 134.938 92.9436 141.302 93.9598 148.052C95.9961 147.997 97.5826 147.754 99.3905 147.189L99.3904 147.19ZM90.2873 148.646C89.405 141.741 88.1738 135.027 86.523 128.286L77.152 128.855L88.0373 148.599C88.3744 149.212 89.0502 149.287 89.4559 149.228C89.6831 149.194 90.3318 148.991 90.2887 148.646L90.2873 148.646Z" fill="#C7F0E2"/>
<path d="M110.396 40.2798C110.284 41.6154 109.532 42.4076 108.39 42.2637C105.34 41.8811 106.927 36.1496 104.166 29.4318C102.102 24.4083 97.2083 27.5286 96.8411 25.0757C96.7564 24.5106 96.7786 23.1953 97.5628 22.8863L103.837 20.4124L106.497 6.7478C106.708 5.6655 107.194 4.94262 108.015 4.80519C108.638 4.70083 110.03 4.98746 110.122 5.91176L111.525 19.8383C114.975 22.3517 118.905 24.0246 117.979 25.9289C117.734 26.4325 117.264 27.0331 116.386 27.1999L111.412 28.1422L110.396 40.2784L110.396 40.2798ZM110.857 23.5978C109.558 22.8537 108.224 23.1266 107.722 20.5338C107.482 22.3597 105.851 23.3444 105.105 24.2271C105.843 25.5892 107.128 26.9407 107.534 28.414C107.762 27.4004 107.819 26.1692 108.302 25.427C108.74 24.7549 112.36 24.4565 110.858 23.5965L110.857 23.5978Z" fill="#C7F0E2"/>
<path d="M113.327 97.9224L107.455 101.884C106.278 102.678 105.92 103.937 104.603 103.621C103.205 103.286 102.492 102.64 102.039 101.212C100.298 95.7298 99.8283 89.6507 104.305 87.7798C106.235 86.9731 107.224 88.8079 108.627 89.1693C110.05 89.5342 111.958 88.0521 113.624 89.5852C116.044 91.8144 116.134 95.4514 113.327 97.9224ZM106.915 94.2441C105.801 93.3293 106.448 91.3293 105.752 91.058C104.322 90.5001 103.343 95.2194 104.912 99.4728L110.935 95.7291C111.458 95.404 111.958 94.4742 111.762 94.0933C111.513 93.6086 110.787 93.1786 110.275 93.1028C109.745 93.0237 108.487 95.534 106.915 94.2427L106.915 94.2441Z" fill="#C7F0E2"/>
<path d="M58.2663 18.015C60.9379 17.2838 63.3202 19.006 63.8651 21.5228C64.3698 23.855 63.0033 26.2521 60.4272 26.8653C58.1761 27.4007 55.7033 26.0593 54.9332 23.4622C54.322 21.4011 55.598 18.7449 58.2663 18.015ZM59.5838 24.7214C61.4045 24.3806 62.2595 22.3594 61.3133 20.9564C60.6674 19.9983 59.1762 19.7308 58.2652 20.2868C57.3898 20.8207 56.9181 22.008 57.2259 23.1269C57.4504 23.942 58.3041 24.9615 59.5837 24.7222L59.5838 24.7214Z" fill="#C7F0E2"/>
<path d="M33.2283 126.64L24.2273 122.485C23.2175 122.019 22.6327 121.189 22.5625 120.364C22.4698 119.292 22.9688 118.117 24.1276 117.632C28.4877 115.807 37.0592 113.091 38.4244 114.038C38.8731 114.349 39.237 115.319 38.9677 116.097L35.7007 125.511C35.4376 126.269 34.3432 127.154 33.2296 126.64L33.2283 126.64ZM32.852 122.455C33.6062 120.683 34.0021 119.73 34.1323 118.248L27.4274 120.159L32.852 122.455Z" fill="#C7F0E2"/>
<path d="M7.80244 87.7496C6.58953 88.3312 5.50502 87.838 5.12028 87.2118C4.58354 86.3403 4.79749 85.0035 5.91881 84.4625L29.5631 73.0516C30.7534 72.4771 31.8879 72.4702 32.473 73.2475C33.2547 74.2858 32.8061 75.7512 31.6692 76.2974L7.80244 87.7496Z" fill="#C7F0E2"/>
<path d="M89.9597 149.951C92.6137 148.908 95.289 150.481 96.1758 152.678C97.1261 155.03 95.9754 157.912 93.4786 158.823C91.25 159.637 88.6252 158.77 87.4881 156.519C86.4266 154.413 87.1945 151.039 89.9595 149.952L89.9597 149.951Z" fill="#C7F0E2"/>
<path d="M115.443 148.396C118.097 147.353 120.772 148.925 121.659 151.122C122.609 153.475 121.458 156.356 118.961 157.268C116.733 158.082 114.108 157.215 112.971 154.964C111.909 152.858 112.677 149.484 115.442 148.397L115.443 148.396Z" fill="#C7F0E2"/>
<path d="M10.9594 96.9834C9.55748 97.6618 8.57966 97.6692 7.87816 96.6328C7.28726 95.7581 7.46839 94.4096 8.68578 93.8244L22.0845 87.3934C23.1121 86.9008 24.3096 87.1923 24.8339 88.2546C25.1973 88.9902 24.9751 90.2021 23.7328 90.8037L10.958 96.9833L10.9594 96.9834Z" fill="#C7F0E2"/>
<path d="M4.8316 78.8631C3.41891 79.4776 2.38811 78.828 2.04478 77.9951C1.55677 76.8114 2.23509 75.9186 3.41025 75.4215L11.3235 72.0755C12.1831 71.7119 13.1061 72.3758 13.4578 73.0174C13.7607 73.5693 13.8659 74.9283 12.8664 75.364L4.8316 78.8631Z" fill="#C7F0E2"/>
<path d="M136.627 62.8947C134.618 60.7603 134.665 57.5619 136.75 55.8876C138.624 54.3827 141.358 54.8062 142.786 56.4458C144.261 58.1395 144.311 60.625 142.829 62.4638C141.488 64.1271 138.401 64.776 136.629 62.8948L136.627 62.8947ZM138.787 57.901C137.756 58.4313 137.714 59.6096 138.266 60.4459C138.634 61.0063 139.446 61.5246 140.27 61.0345C141.028 60.5836 141.32 59.6708 141.059 58.8769C140.813 58.1281 139.872 57.3424 138.788 57.9011L138.787 57.901Z" fill="#C7F0E2"/>
<path d="M140.472 128.641C138.6 128.953 137.006 128.654 135.88 127.454C134.65 126.146 134.505 124.498 135.021 122.538C132.669 122.203 131.221 120.597 130.789 118.801C130.254 116.576 131.179 114.69 133.415 113.3C131.445 111.87 130.713 110.121 130.87 108.103C131.031 106.015 132.212 104.411 134.35 103.549C133.809 101.435 133.637 99.3951 134.307 97.455C135.135 95.0604 137.244 93.6926 139.721 93.7804C140.662 93.8139 140.139 91.0348 142.87 89.316C144.233 88.4576 145.88 89.1016 147.149 89.2905C148.379 88.2079 149.464 86.7989 151.004 86.6179C153.026 86.3799 154.642 86.9824 156.174 88.5051C157.7 86.235 160.16 85.4884 162.646 86.2788C164.775 86.9545 166.27 89.1259 166.178 91.9148C168.712 91.3397 171.239 91.5664 172.964 93.5134C174.468 95.2088 174.907 97.8276 173.634 100.385C176.842 100.834 178.741 103.371 178.531 106.561C178.386 108.775 177.168 110.847 175.602 112.356C176.862 114.29 178.146 116.459 177.136 119.18C176.395 121.179 174.539 122.893 171.871 123.384C172.998 126.348 172.092 129.484 169.704 131.183C167.315 132.881 164.116 132.613 161.644 130.537C161.53 133.469 159.988 135.923 157.206 136.534C154.549 137.119 151.717 135.582 150.569 132.56C148.534 134.158 146.433 134.911 144.102 133.907C142.248 133.108 140.717 131.268 140.472 128.639L140.472 128.641ZM150.308 129.462C151.614 128.619 152.575 130.772 152.754 131.66C153.151 133.631 155.075 134.705 156.739 134.418C158.326 134.143 159.475 132.45 159.408 130.727C159.387 130.221 159.018 129.134 159.585 128.858C160.624 128.56 161.862 128.666 162.961 128.702C164.627 130.509 167.383 130.54 169.039 128.887C171.915 126.015 168.458 122.87 169.072 121.588C169.289 121.136 169.848 121.098 170.49 121.168C172.722 121.409 174.698 119.689 175.124 117.726C175.952 113.916 171.619 113.241 171.497 111.801C171.338 109.94 174.348 111.924 175.715 108.737C176.497 106.918 176.647 104.882 175.251 103.371C174.743 102.82 174.123 102.556 173.404 102.533C172.829 102.514 172.348 103.087 171.778 103.446C170.856 104.024 170.095 103.182 169.887 102.535C169.591 101.618 169.982 101.191 170.704 100.591C172.567 99.0423 172.825 96.0274 170.836 94.5098C169.057 93.1525 166.644 93.7488 165.287 95.3914C164.811 95.9668 164.119 96.1808 163.586 95.8262C163.162 95.5433 162.93 94.732 163.312 94.1028C164.421 92.2714 164.355 89.7666 162.442 88.5365C161.299 87.8025 159.912 88.1405 158.893 88.7825C156.813 90.0935 157.561 93.5904 155.6 92.3539C155.238 92.1253 155.127 91.6664 155.014 91.056C154.71 89.403 153.104 88.6571 151.535 88.9032C148.394 89.395 149.399 92.9987 147.884 92.9972C146.478 92.9952 145.966 89.9788 143.907 91.3071C141.086 93.1293 143.418 96.8233 141.54 96.9475C141.032 96.9812 140.695 96.7362 140.234 96.3976C138.953 95.4565 137.34 96.3342 136.62 97.6872C134.749 101.206 138.139 105.156 136.138 105.439C134.608 105.655 133.453 106.334 133.056 107.733C132.708 108.965 133.18 110.37 134.408 111.087C136.046 112.043 136.802 113.745 136.297 114.385C135.869 114.928 132.295 115.318 132.887 118.268C133.465 121.158 136.755 119.745 137.777 121.26C138.476 122.297 135.413 124.451 137.801 126.229C139.739 127.67 141.345 124.8 142.577 125.777C143.33 126.374 141.346 130.511 145.414 131.903C147.626 132.66 148.909 131.014 150.31 129.462L150.308 129.462Z" fill="#C7F0E2"/>
<path d="M145.568 121.575C145.027 122.126 144.516 122.087 144.218 121.937C143.881 121.769 143.319 120.781 143.753 120.339L160.767 102.979C161.266 102.471 161.842 102.308 162.287 102.494C162.652 102.646 163.125 103.706 162.67 104.169L145.567 121.576L145.568 121.575Z" fill="#C7F0E2"/>
<path d="M155.547 104.766C154.997 106.643 153.34 107.689 151.931 108.027C150.125 108.46 148.311 108.098 147.029 106.865C145.598 105.491 145.027 103.808 145.567 101.979C146.038 100.381 147.439 99.1395 149.331 98.762C151.084 98.4132 152.902 98.7895 154.286 100.122C155.292 101.093 156.103 102.869 155.548 104.766L155.547 104.766ZM153.429 104.041C153.95 101.962 152 100.773 150.367 100.813C149.104 100.844 148.043 101.495 147.73 102.411C147.35 103.526 147.644 104.485 148.572 105.33C149.934 106.57 152.885 106.207 153.429 104.041Z" fill="#C7F0E2"/>
<path d="M160.119 123.973C156.699 125.654 152.543 123.334 151.837 119.858C151.558 118.483 152.069 117.842 152.926 117.107C154.996 115.336 157.768 114.893 160.059 116.522C161.281 117.391 162.113 118.633 162.148 119.971C162.187 121.4 161.735 123.177 160.119 123.971L160.119 123.973ZM159.004 122.199C159.81 121.551 160.001 120.788 159.903 119.95C159.833 119.346 159.442 118.656 158.663 118.265C157.1 117.145 154.921 117.6 154.031 119.38C154.635 121.554 156.773 122.776 159.004 122.199Z" fill="#C7F0E2"/>
<path d="M38.7041 23.8928L38.6709 24.3008C38.27 24.5681 38.0197 24.9799 37.963 25.467C36.6097 27.3484 34.2592 28.2554 31.9842 27.7207C29.8846 27.2267 28.2542 25.8201 26.7185 24.143C27.2457 23.0853 27.2417 21.8108 27.8852 20.7862C32.149 17.531 38.9018 21.4451 38.7041 23.8928Z" fill="#C7F0E2"/>
<path d="M37.8291 19.694C34.8258 18.7986 30.7502 19.1771 27.5971 17.903C27.1519 17.2431 27.2446 15.1873 28.4344 15.0093C31.7581 14.5154 35.324 15.1719 38.49 16.0618C39.6406 16.385 39.8628 17.4814 39.7375 18.2501C39.5843 19.1887 39.0956 19.8145 37.8291 19.694Z" fill="#C7F0E2"/>
<path d="M22.1072 52.7507C23.0232 55.094 20.4831 56.5078 19.2605 56.9521C15.5798 58.2904 10.5882 54.1946 11.6318 52.2661C13.4368 48.9292 20.5431 48.7513 22.1059 52.7506L22.1072 52.7507Z" fill="#C7F0E2"/>
<path d="M20.9228 49.1957C16.4926 47.8735 13.8285 49.1868 13.0462 46.8171C12.8623 46.2617 13.0327 44.6722 13.9606 44.5967C19.1455 44.1799 25.502 45.8847 23.3643 48.5929C22.9098 49.1679 22.1399 49.5589 20.9229 49.1944L20.9228 49.1957Z" fill="#C7F0E2"/>
</svg>
