<svg width="98" height="21" viewBox="0 0 98 21" fill="none" xmlns="http://www.w3.org/2000/svg">
<path d="M27.8202 15.2118V2.25566L29.9863 1.86749V9.77203L34.3729 5.68132H36.8539L32.1335 10.1059L37.1308 15.2145H34.3159L29.9836 10.79V15.2145H27.8174L27.8202 15.2118Z" fill="#0F172A"/>
<path d="M41.6857 15.3802C40.7356 15.3802 39.8806 15.1658 39.1232 14.7314C38.3632 14.2998 37.7606 13.7108 37.31 12.9643C36.8594 12.2178 36.6341 11.3818 36.6341 10.4562C36.6341 9.53052 36.8485 8.69718 37.2828 7.95613C37.7144 7.21508 38.2953 6.62604 39.0228 6.18901C39.7503 5.75198 40.5646 5.5321 41.4658 5.5321C42.367 5.5321 43.1651 5.75469 43.8627 6.19715C44.5603 6.64232 45.1114 7.24222 45.5185 8.00227C45.9257 8.76232 46.1293 9.62281 46.1293 10.5837V11.1565H38.8355C38.9332 11.6261 39.1205 12.0387 39.392 12.397C39.6634 12.7553 40.0081 13.0349 40.4289 13.2385C40.8469 13.4421 41.3002 13.5452 41.7807 13.5452C42.2259 13.5452 42.6466 13.4774 43.0484 13.3416C43.4501 13.2059 43.7867 13.0078 44.0581 12.7499L45.4642 14.0827C44.8969 14.5279 44.3106 14.8536 43.7053 15.0626C43.0999 15.2716 42.4267 15.3775 41.6884 15.3775L41.6857 15.3802ZM38.8165 9.58481H43.9821C43.8953 9.13964 43.7297 8.75147 43.4827 8.41759C43.2357 8.08371 42.9371 7.82312 42.5842 7.63039C42.2313 7.44038 41.8458 7.34266 41.4278 7.34266C41.0098 7.34266 40.5972 7.43495 40.2334 7.61953C39.8697 7.80412 39.5684 8.06471 39.3268 8.39587C39.0852 8.72704 38.9169 9.12335 38.8165 9.57938V9.58481Z" fill="#0F172A"/>
<path d="M52.218 15.361C51.3303 15.361 50.516 15.1411 49.7749 14.7041C49.0339 14.267 48.4503 13.678 48.0268 12.9369C47.6006 12.1959 47.3889 11.3626 47.3889 10.4369C47.3889 9.51129 47.6034 8.69695 48.0377 7.9559C48.4693 7.21485 49.0556 6.62852 49.7966 6.19692C50.5377 5.76532 51.3629 5.54816 52.2777 5.54816C52.7826 5.54816 53.2685 5.61874 53.7299 5.75989C54.1914 5.90104 54.6203 6.11548 55.0166 6.39779V2.25279L57.1827 1.86462V15.2117H55.0356V14.3593C54.2457 15.0244 53.3065 15.3583 52.2207 15.3583L52.218 15.361ZM52.5328 13.4907C53.0377 13.4907 53.5046 13.4011 53.9308 13.222C54.357 13.0428 54.718 12.7822 55.0139 12.4348V8.41735C54.718 8.09705 54.3542 7.84732 53.9226 7.66816C53.491 7.48901 53.0269 7.39943 52.5355 7.39943C51.9682 7.39943 51.4552 7.53244 50.9992 7.79846C50.5431 8.06447 50.1821 8.4255 49.9161 8.88153C49.6501 9.33756 49.5171 9.85602 49.5171 10.4369C49.5171 11.0178 49.6501 11.5363 49.9161 11.9923C50.1821 12.4483 50.5431 12.8121 50.9992 13.0835C51.4552 13.355 51.9682 13.4907 52.5355 13.4907H52.5328Z" fill="#0F172A"/>
<path d="M62.2858 15.3801C61.6072 15.3801 61.0046 15.258 60.4807 15.011C59.9568 14.7639 59.5469 14.4219 59.2511 13.9849C58.9552 13.5479 58.8059 13.043 58.8059 12.4756C58.8059 11.5636 59.1479 10.8524 59.8319 10.3475C60.516 9.8426 61.4579 9.58744 62.655 9.58744C63.5426 9.58744 64.3705 9.73674 65.136 10.0326V9.18027C65.136 8.56409 64.9542 8.09991 64.5904 7.79318C64.2267 7.48373 63.6865 7.33172 62.9699 7.33172C62.5491 7.33172 62.1067 7.39415 61.6371 7.5163C61.1675 7.64117 60.63 7.84475 60.0274 8.12706L59.2511 6.49838C59.9785 6.1645 60.6707 5.91477 61.3249 5.74918C61.9791 5.5836 62.6387 5.49945 63.3065 5.49945C64.566 5.49945 65.5405 5.80076 66.23 6.40608C66.9221 7.01141 67.2669 7.86375 67.2669 8.9604V15.2173H65.1387V14.4572C64.7316 14.7775 64.2945 15.0137 63.8249 15.1603C63.3553 15.3095 62.845 15.3828 62.2885 15.3828L62.2858 15.3801ZM60.8607 12.4186C60.8607 12.8394 61.0399 13.176 61.3982 13.4284C61.7565 13.6809 62.2315 13.8084 62.8233 13.8084C63.2793 13.8084 63.7028 13.7433 64.091 13.613C64.4791 13.4827 64.8293 13.29 65.136 13.0294V11.512C64.8021 11.3518 64.4547 11.2324 64.091 11.151C63.7272 11.0723 63.3282 11.0315 62.8966 11.0315C62.2668 11.0315 61.7701 11.1537 61.4063 11.4007C61.0426 11.6477 60.8607 11.987 60.8607 12.4186Z" fill="#0F172A"/>
<path d="M70.3942 4.32962C70.0495 4.32962 69.7482 4.20747 69.4957 3.96045C69.2433 3.71343 69.1157 3.41213 69.1157 3.05382C69.1157 2.69551 69.2433 2.3942 69.4957 2.14718C69.7482 1.90017 70.0468 1.77802 70.3942 1.77802C70.7417 1.77802 71.0538 1.90017 71.3008 2.14718C71.5479 2.3942 71.67 2.69551 71.67 3.05382C71.67 3.41213 71.5479 3.71343 71.3008 3.96045C71.0538 4.20747 70.7525 4.32962 70.3942 4.32962ZM69.322 15.2119V5.67871H71.4881V15.2119H69.322Z" fill="#0F172A"/>
<path d="M73.5779 18.9877V5.67867H75.7061V6.55001C76.496 5.88497 77.4325 5.55109 78.5183 5.55109C79.4303 5.55109 80.2528 5.77096 80.9803 6.20799C81.7078 6.64502 82.286 7.23134 82.7121 7.96696C83.1383 8.70259 83.35 9.52507 83.35 10.4371C83.35 11.3492 83.1329 12.1961 82.7013 12.9372C82.2697 13.6782 81.6861 14.2673 80.9532 14.7043C80.2203 15.1413 79.3951 15.3612 78.483 15.3612C77.9781 15.3612 77.4922 15.2852 77.0307 15.1305C76.5666 14.9757 76.1377 14.764 75.7441 14.4926V18.9904H73.5779V18.9877ZM78.2061 13.4909C78.787 13.4909 79.3 13.3579 79.7506 13.0919C80.2012 12.8259 80.5596 12.4648 80.8256 12.0088C81.0916 11.5528 81.2246 11.0343 81.2246 10.4534C81.2246 9.87252 81.0916 9.35406 80.8256 8.89803C80.5596 8.442 80.1985 8.08097 79.7425 7.81495C79.2865 7.54894 78.7734 7.41593 78.2061 7.41593C77.7121 7.41593 77.2533 7.5055 76.8272 7.68466C76.401 7.86382 76.04 8.11897 75.7441 8.45285V12.4703C76.0264 12.7906 76.3847 13.0403 76.8163 13.2195C77.2479 13.3986 77.7121 13.4882 78.2034 13.4882L78.2061 13.4909Z" fill="#0F172A"/>
<path d="M88.1277 15.3801C87.4491 15.3801 86.8465 15.258 86.3226 15.011C85.7987 14.7639 85.3889 14.4219 85.093 13.9849C84.7971 13.5479 84.6478 13.043 84.6478 12.4756C84.6478 11.5636 84.9898 10.8524 85.6739 10.3475C86.3579 9.8426 87.2998 9.58744 88.4969 9.58744C89.3845 9.58744 90.2125 9.73674 90.9779 10.0326V9.18027C90.9779 8.56409 90.7961 8.09991 90.4323 7.79318C90.0686 7.48373 89.5284 7.33172 88.8118 7.33172C88.3911 7.33172 87.9486 7.39415 87.479 7.5163C87.0094 7.64117 86.4719 7.84475 85.8693 8.12706L85.093 6.49838C85.8205 6.1645 86.5126 5.91477 87.1668 5.74918C87.821 5.5836 88.4806 5.49945 89.1484 5.49945C90.4079 5.49945 91.3824 5.80076 92.0719 6.40608C92.7641 7.01141 93.1088 7.86375 93.1088 8.9604V15.2173H90.9807V14.4572C90.5735 14.7775 90.1365 15.0137 89.6668 15.1603C89.1972 15.3095 88.6869 15.3828 88.1305 15.3828L88.1277 15.3801ZM86.7027 12.4186C86.7027 12.8394 86.8818 13.176 87.2401 13.4284C87.5984 13.6809 88.0735 13.8084 88.6652 13.8084C89.1212 13.8084 89.5447 13.7433 89.9329 13.613C90.321 13.4827 90.6712 13.29 90.9779 13.0294V11.512C90.6441 11.3518 90.2966 11.2324 89.9329 11.151C89.5691 11.0723 89.1701 11.0315 88.7385 11.0315C88.1087 11.0315 87.612 11.1537 87.2483 11.4007C86.8845 11.6477 86.7027 11.987 86.7027 12.4186Z" fill="#0F172A"/>
<path d="M95.1608 15.2118V2.25566L97.3269 1.86749V15.2145H95.1608V15.2118Z" fill="#0F172A"/>
<path d="M21.2131 3.21395C21.2131 2.28832 20.4639 1.53912 19.5383 1.53912H3.98437C3.05874 1.53912 2.30954 2.28832 2.30954 3.21395L1.53864 13.8737C1.53864 15.4046 2.77915 16.6452 4.31011 16.6452H9.27759C9.58433 16.6452 9.87477 16.7944 10.0539 17.0442L11.4302 18.9633C11.593 19.1913 11.9323 19.1913 12.0952 18.9633L13.4714 17.0442C13.6506 16.7944 13.9383 16.6452 14.2478 16.6452H19.2153C20.7462 16.6452 21.9867 15.4046 21.9867 13.8737L21.2158 3.21395H21.2131Z" fill="#0F172A"/>
<path d="M11.7618 20.6734C11.1348 20.6734 10.543 20.3694 10.1766 19.8591L8.97675 18.1842H4.31329C1.93542 18.1842 0 16.2488 0 13.8709V13.7597L0.77091 3.14879C0.806198 1.4061 2.23401 0 3.98484 0H19.5415C21.2923 0 22.7201 1.4061 22.7554 3.14879L23.5263 13.8167V13.8709C23.5263 16.2488 21.5909 18.1842 19.213 18.1842H14.5468L13.3471 19.8591C12.9833 20.3694 12.3888 20.6734 11.7645 20.6734H11.7618ZM3.08092 13.9171C3.10535 14.5767 3.64825 15.106 4.31329 15.106H9.28078C10.0815 15.106 10.8416 15.4942 11.3085 16.1484L11.7645 16.7836L12.2205 16.1484C12.6874 15.4969 13.4448 15.106 14.2483 15.106H19.2157C19.8808 15.106 20.4237 14.5767 20.4481 13.9171L19.6799 3.26822V3.21393C19.6799 3.14064 19.6202 3.08092 19.5469 3.08092H3.98484C3.91155 3.08092 3.85183 3.14064 3.85183 3.21393V3.32523L3.08364 13.9171H3.08092Z" fill="#0F172A"/>
<path d="M21.2131 3.21395C21.2131 2.28832 20.4639 1.53912 19.5383 1.53912H3.98437C3.05874 1.53912 2.30954 2.28832 2.30954 3.21395L1.53864 13.8737C1.53864 15.4046 2.77915 16.6452 4.31011 16.6452H9.27759C9.58433 16.6452 9.87477 16.7944 10.0539 17.0442L11.4302 18.9633C11.593 19.1913 11.9323 19.1913 12.0952 18.9633L13.4714 17.0442C13.6506 16.7944 13.9383 16.6452 14.2478 16.6452H19.2153C20.7462 16.6452 21.9867 15.4046 21.9867 13.8737L21.2158 3.21395H21.2131Z" fill="#10B981"/>
<path d="M13.4448 12.1908H9.89159C8.22219 12.1908 6.86224 10.8309 6.86224 9.16149V6.13757H7.88017V9.16149C7.88017 10.2717 8.78409 11.1729 9.89159 11.1729H13.4448C14.5551 11.1729 15.4563 10.269 15.4563 9.16149V6.13757H16.4742V9.16149C16.4742 10.8309 15.1142 12.1908 13.4448 12.1908Z" fill="white"/>
<path d="M15.9799 7.0526C16.5662 7.0526 17.0415 6.5773 17.0415 5.99099C17.0415 5.40468 16.5662 4.92938 15.9799 4.92938C15.3936 4.92938 14.9183 5.40468 14.9183 5.99099C14.9183 6.5773 15.3936 7.0526 15.9799 7.0526Z" fill="white"/>
<path d="M7.33988 7.0526C7.92619 7.0526 8.40149 6.5773 8.40149 5.99099C8.40149 5.40468 7.92619 4.92938 7.33988 4.92938C6.75357 4.92938 6.27827 5.40468 6.27827 5.99099C6.27827 6.5773 6.75357 7.0526 7.33988 7.0526Z" fill="white"/>
</svg>
